# xmcd
# 
# Track frame offsets:
#     182
#     14495
#     27567
#     40832
#     54007
#     67110
#     79912
#     94180
#     106352
#     119502
#     131685
#     145545
# 
# Disc length: 2124
# 
# Revision: 3
# Processed by: cddbd v1.5.2PL0 Copyright (c) Steve Scherf et al.
# Submitted via: fre:ac v1.0.27
# 
DISCID=a3084a0c
DTITLE=Dinah Washington - Dinah's Blues
DYEAR=1998
DGENRE=Blues
TTITLE0=Mellow Mama Blues
TTITLE1=All or Nothing Blues
TTITLE2=Rich Man's Blues
TTITLE3=Chewin' Mama Blues
TTITLE4=Blues for a Day
TTITLE5=Wise Woman Blues
TTITLE6=My Voot is Really Vout
TTITLE7=Pacific Coast Blues
TTITLE8=Beggin' Mama Blues
TTITLE9=Walking Blues
TTITLE10=No Voot No Boot
TTITLE11=My Lovin' Papa
EXTD=Lucky Thompson: tenor saxophone\nKarl George: trumpet\nJewel Grant: alto saxophone\nGene Porter: clarinet, alto saxophone, baritone saxophone\nEXTD=nMilt Jackson: vinMilt Jackson: vibes\nWilbert Baranco: piano\nCharles Mingus: bass\nLee Young: drums
EXTD=\n\nRecorded in Los Angeles, on December 10, 12, and 13, 1945Lucky Thompson: tenor saxophone\nKarl George: trumpet\nJewel Grant: alto saxophone\nGene Porter: clarinet, alto saxophone, baritone saxophone\nEXTD=nMilt Jackson: vi YEAR: 1998
EXTT0=
EXTT1=
EXTT2=
EXTT3=
EXTT4=
EXTT5=
EXTT6=
EXTT7=
EXTT8=
EXTT9=
EXTT10=
EXTT11=
PLAYORDER=
